<?xml version="1.0" encoding="UTF-8"?>
<svg xmlns="http://www.w3.org/2000/svg" viewBox="0 0 561.05 383.78">
  <defs>
    <style>
      .cls-1 {
        fill: #fff;
      }

      .cls-2, .cls-3, .cls-4 {
        stroke-linejoin: round;
      }

      .cls-2, .cls-3, .cls-4, .cls-5, .cls-6 {
        fill: none;
        stroke: #fff;
        stroke-linecap: round;
      }

      .cls-2, .cls-5 {
        stroke-width: 7px;
      }

      .cls-3 {
        stroke-width: 11.79px;
      }

      .cls-4 {
        stroke-width: 11.61px;
      }

      .cls-5, .cls-6 {
        stroke-miterlimit: 10;
      }

      .cls-6 {
        stroke-width: 6.63px;
      }
    </style>
  </defs>
  <g id="Fills">
    <path class="cls-1" d="M284.06,92.74c-52.28,0-94.67,42.38-94.67,94.67s42.38,94.67,94.67,94.67,94.67-42.38,94.67-94.67-42.38-94.67-94.67-94.67ZM284.06,248.41c-33.69,0-61.01-27.31-61.01-61.01s27.31-61.01,61.01-61.01,61.01,27.31,61.01,61.01-27.31,61.01-61.01,61.01Z"/>
    <rect class="cls-1" x="73.85" y="171.36" width="85.92" height="32.1" rx="11.21" ry="11.21"/>
    <rect class="cls-1" x="165.43" y="163.41" width="18.29" height="47.99" rx="6.33" ry="6.33"/>
    <path class="cls-1" d="M549.78,180.71c-21.43-17.92-42.31-38.66-62.49-58.72C428.46,63.52,367.63,3.06,284.06,3.06S136.81,63.3,77.73,121.55c-21.9,21.59-42.59,41.99-64.2,59.03l-7.9,6.23,8.23,5.79c17.93,12.62,37.67,33.11,58.56,54.81,49.56,51.45,110.38,114.56,192.37,123.31-.68-2.03-1.07-4.2-1.07-6.46,0-3.05.69-5.93,1.9-8.53-31.42-3.5-62.27-16.03-93.78-38.03-33.26-23.22-62.67-53.76-88.62-80.7-18.49-19.19-36.09-37.47-52.85-50.76,19.5-16.17,38.21-34.61,57.89-54.02,56.93-56.13,115.8-114.16,195.8-114.16,35.04,0,67.71,11.15,102.82,35.1,31.49,21.47,61.15,50.95,89.84,79.46,18.33,18.22,37.22,36.99,56.77,53.91-23.99,21.18-44.86,42.43-65.09,63.04-16.03,16.33-31.14,31.69-46.25,45.45,4.57,2.34,8.12,6.37,9.84,11.26,15.68-14.22,31.1-29.9,47.11-46.2,21.85-22.25,44.44-45.26,70.77-67.93l6.7-5.77-6.78-5.67Z"/>
    <path class="cls-1" d="M402.88,330.4c-4.4-2.56-7.76-6.73-9.24-11.7-27.02,19.99-55.76,33.62-91.09,37.14,1.17,2.57,1.84,5.41,1.84,8.41,0,2.3-.4,4.51-1.11,6.58,38.94-3.76,70.52-18.89,99.6-40.43Z"/>
    <g>
      <path class="cls-1" d="M408.2,199.47c-2.3,23.85-11.35,45.76-25.2,63.79l15.66,15.66c17.73-22.16,29.18-49.55,31.63-79.45h-22.09Z"/>
      <path class="cls-1" d="M365.1,282.14c-18.72,16.03-42.22,26.63-68.04,29.32v22.09c31.88-2.81,60.85-15.86,83.62-35.83l-15.59-15.59Z"/>
      <path class="cls-1" d="M284.06,62.68c64.06,0,116.99,48.55,123.95,110.79h22.12c-7.05-74.39-69.86-132.79-146.06-132.79-71.58,0-131.34,51.52-144.17,119.42h22.46c12.49-55.69,62.31-97.42,121.71-97.42Z"/>
      <path class="cls-1" d="M271.05,311.46c-53.56-5.57-97.15-45.18-108.71-96.74h-22.46c12.05,63.75,65.45,113.05,131.17,118.85v-22.1Z"/>
    </g>
  </g>
  <g id="Strikes">
    <circle class="cls-4" cx="412.97" cy="312.97" r="10.17"/>
    <circle class="cls-3" cx="284.06" cy="364.25" r="10.34"/>
    <line class="cls-6" x1="392.3" y1="187.41" x2="504.74" y2="187.41"/>
    <path class="cls-5" d="M385.8,150.4c4.2,11.55,6.49,24.01,6.49,37.01,0,59.78-48.46,108.24-108.24,108.24v58.27"/>
    <line class="cls-6" x1="362.25" y1="262.25" x2="405.78" y2="305.77"/>
    <polyline class="cls-2" points="443.24 186.47 443.24 166.12 466.18 166.12"/>
    <polyline class="cls-2" points="458.21 188.62 458.21 208.81 477.96 208.81"/>
    <circle class="cls-2" cx="473.35" cy="166.12" r="6.14"/>
    <circle class="cls-2" cx="484.1" cy="208.58" r="6.14"/>
    <circle class="cls-2" cx="511.82" cy="187.41" r="6.14"/>
    <line class="cls-4" x1="186.8" y1="92.74" x2="132.74" y2="79.68"/>
    <line class="cls-4" x1="186.8" y1="282.08" x2="132.74" y2="296.18"/>
    <line class="cls-4" x1="155.12" y1="144.9" x2="64.62" y2="144.9"/>
    <line class="cls-4" x1="155.12" y1="229.92" x2="64.62" y2="229.92"/>
    <line class="cls-4" x1="231.84" y1="62.09" x2="212.68" y2="25.9"/>
    <line class="cls-4" x1="231.84" y1="312.97" x2="212.68" y2="349.26"/>
    <line class="cls-4" x1="412.97" y1="144.85" x2="499.78" y2="144.85"/>
    <line class="cls-4" x1="381.49" y1="92.93" x2="431.77" y2="79.19"/>
    <line class="cls-4" x1="326.57" y1="58.47" x2="346.03" y2="22.6"/>
  </g>
</svg>